<mxfile host="app.diagrams.net" modified="2022-12-06T09:25:33.582Z" agent="5.0 (Windows NT 10.0; Win64; x64) AppleWebKit/537.36 (KHTML, like Gecko) Chrome/108.0.0.0 Safari/537.36" etag="NzEyn0695z2OoCz6vtXz" version="20.6.0" type="github">
  <diagram name="Page-1" id="0783ab3e-0a74-02c8-0abd-f7b4e66b4bec">
    <mxGraphModel dx="782" dy="649" grid="1" gridSize="10" guides="1" tooltips="1" connect="1" arrows="1" fold="1" page="1" pageScale="1" pageWidth="850" pageHeight="1100" background="none" math="0" shadow="0">
      <root>
        <mxCell id="0" />
        <mxCell id="1" parent="0" />
        <mxCell id="1c1d494c118603dd-1" value="Получение траектории обучения" style="swimlane;html=1;childLayout=stackLayout;startSize=20;rounded=0;shadow=0;comic=0;labelBackgroundColor=none;strokeWidth=1;fontFamily=Verdana;fontSize=12;align=left;" parent="1" vertex="1">
          <mxGeometry x="90" y="30" width="1040" height="830" as="geometry" />
        </mxCell>
        <mxCell id="1c1d494c118603dd-3" value="Деканат" style="swimlane;html=1;startSize=20;" parent="1c1d494c118603dd-1" vertex="1">
          <mxGeometry y="20" width="250" height="810" as="geometry" />
        </mxCell>
        <mxCell id="-TtQoOYBS4aJGNzO3_nJ-19" value="Обновляет информацию о студентах" style="rounded=0;whiteSpace=wrap;html=1;fontSize=13;fillColor=none;" vertex="1" parent="1c1d494c118603dd-3">
          <mxGeometry x="65" y="520" width="120" height="60" as="geometry" />
        </mxCell>
        <mxCell id="1c1d494c118603dd-4" value="Администратор ИС" style="swimlane;html=1;startSize=20;" parent="1c1d494c118603dd-1" vertex="1">
          <mxGeometry x="250" y="20" width="250" height="810" as="geometry" />
        </mxCell>
        <mxCell id="-TtQoOYBS4aJGNzO3_nJ-21" value="Запросить информацию&lt;br&gt;у деканата" style="rounded=0;whiteSpace=wrap;html=1;fillColor=none;" vertex="1" parent="1c1d494c118603dd-4">
          <mxGeometry x="60" y="520" width="120" height="60" as="geometry" />
        </mxCell>
        <mxCell id="-TtQoOYBS4aJGNzO3_nJ-25" value="Заполняет информацию в ИС" style="rounded=0;whiteSpace=wrap;html=1;fillColor=none;" vertex="1" parent="1c1d494c118603dd-4">
          <mxGeometry x="60" y="630" width="120" height="60" as="geometry" />
        </mxCell>
        <mxCell id="1c1d494c118603dd-2" value="Информационная система" style="swimlane;html=1;startSize=20;" parent="1c1d494c118603dd-1" vertex="1">
          <mxGeometry x="500" y="20" width="270" height="810" as="geometry" />
        </mxCell>
        <mxCell id="-TtQoOYBS4aJGNzO3_nJ-9" style="edgeStyle=orthogonalEdgeStyle;rounded=0;orthogonalLoop=1;jettySize=auto;html=1;exitX=0.5;exitY=1;exitDx=0;exitDy=0;entryX=0.5;entryY=0;entryDx=0;entryDy=0;" edge="1" parent="1c1d494c118603dd-2" source="-TtQoOYBS4aJGNzO3_nJ-6" target="-TtQoOYBS4aJGNzO3_nJ-8">
          <mxGeometry relative="1" as="geometry" />
        </mxCell>
        <mxCell id="-TtQoOYBS4aJGNzO3_nJ-6" value="Сверить данные входа" style="rounded=0;whiteSpace=wrap;html=1;fillColor=none;" vertex="1" parent="1c1d494c118603dd-2">
          <mxGeometry x="60" y="180" width="120" height="60" as="geometry" />
        </mxCell>
        <mxCell id="-TtQoOYBS4aJGNzO3_nJ-8" value="Данные верны?" style="rhombus;whiteSpace=wrap;html=1;fillColor=none;" vertex="1" parent="1c1d494c118603dd-2">
          <mxGeometry x="65" y="310" width="110" height="80" as="geometry" />
        </mxCell>
        <mxCell id="-TtQoOYBS4aJGNzO3_nJ-16" value="Запросить информацию&lt;br&gt;об успеваемости студента" style="rounded=0;whiteSpace=wrap;html=1;fillColor=none;" vertex="1" parent="1c1d494c118603dd-2">
          <mxGeometry x="65" y="520" width="120" height="60" as="geometry" />
        </mxCell>
        <mxCell id="-TtQoOYBS4aJGNzO3_nJ-27" value="Передать данные пользователю" style="rounded=0;whiteSpace=wrap;html=1;fillColor=none;" vertex="1" parent="1c1d494c118603dd-2">
          <mxGeometry x="65" y="630" width="120" height="60" as="geometry" />
        </mxCell>
        <mxCell id="-TtQoOYBS4aJGNzO3_nJ-3" value="Пользователь" style="swimlane;html=1;startSize=20;" vertex="1" parent="1c1d494c118603dd-1">
          <mxGeometry x="770" y="20" width="270" height="810" as="geometry" />
        </mxCell>
        <mxCell id="-TtQoOYBS4aJGNzO3_nJ-5" value="Войти в личный&lt;br&gt;кабинет" style="rounded=0;whiteSpace=wrap;html=1;fillColor=none;" vertex="1" parent="-TtQoOYBS4aJGNzO3_nJ-3">
          <mxGeometry x="80" y="50" width="120" height="60" as="geometry" />
        </mxCell>
        <mxCell id="-TtQoOYBS4aJGNzO3_nJ-14" value="Узнать траекторию обучения" style="rounded=0;whiteSpace=wrap;html=1;fillColor=none;" vertex="1" parent="-TtQoOYBS4aJGNzO3_nJ-3">
          <mxGeometry x="80" y="430" width="120" height="60" as="geometry" />
        </mxCell>
        <mxCell id="-TtQoOYBS4aJGNzO3_nJ-7" style="edgeStyle=orthogonalEdgeStyle;rounded=0;orthogonalLoop=1;jettySize=auto;html=1;entryX=0.5;entryY=0;entryDx=0;entryDy=0;exitX=0;exitY=0.5;exitDx=0;exitDy=0;" edge="1" parent="1c1d494c118603dd-1" source="-TtQoOYBS4aJGNzO3_nJ-5" target="-TtQoOYBS4aJGNzO3_nJ-6">
          <mxGeometry relative="1" as="geometry">
            <mxPoint x="770" y="270" as="sourcePoint" />
            <Array as="points">
              <mxPoint x="620" y="100" />
            </Array>
          </mxGeometry>
        </mxCell>
        <mxCell id="-TtQoOYBS4aJGNzO3_nJ-10" style="edgeStyle=orthogonalEdgeStyle;rounded=0;orthogonalLoop=1;jettySize=auto;html=1;exitX=1;exitY=0.5;exitDx=0;exitDy=0;entryX=0.5;entryY=1;entryDx=0;entryDy=0;" edge="1" parent="1c1d494c118603dd-1" source="-TtQoOYBS4aJGNzO3_nJ-8" target="-TtQoOYBS4aJGNzO3_nJ-5">
          <mxGeometry relative="1" as="geometry" />
        </mxCell>
        <mxCell id="-TtQoOYBS4aJGNzO3_nJ-11" value="&lt;font style=&quot;font-size: 13px;&quot;&gt;Нет&lt;/font&gt;" style="edgeLabel;html=1;align=center;verticalAlign=middle;resizable=0;points=[];" vertex="1" connectable="0" parent="-TtQoOYBS4aJGNzO3_nJ-10">
          <mxGeometry x="-0.7746" relative="1" as="geometry">
            <mxPoint x="-25" y="-10" as="offset" />
          </mxGeometry>
        </mxCell>
        <mxCell id="-TtQoOYBS4aJGNzO3_nJ-12" style="edgeStyle=orthogonalEdgeStyle;rounded=0;orthogonalLoop=1;jettySize=auto;html=1;exitX=0.5;exitY=1;exitDx=0;exitDy=0;entryX=0;entryY=0.5;entryDx=0;entryDy=0;" edge="1" parent="1c1d494c118603dd-1" source="-TtQoOYBS4aJGNzO3_nJ-8" target="-TtQoOYBS4aJGNzO3_nJ-14">
          <mxGeometry relative="1" as="geometry">
            <mxPoint x="800" y="570" as="targetPoint" />
            <Array as="points">
              <mxPoint x="620" y="480" />
            </Array>
          </mxGeometry>
        </mxCell>
        <mxCell id="-TtQoOYBS4aJGNzO3_nJ-13" value="&lt;font style=&quot;font-size: 13px;&quot;&gt;Да&lt;/font&gt;" style="edgeLabel;html=1;align=center;verticalAlign=middle;resizable=0;points=[];" vertex="1" connectable="0" parent="-TtQoOYBS4aJGNzO3_nJ-12">
          <mxGeometry x="-0.7176" y="-1" relative="1" as="geometry">
            <mxPoint x="11" y="-14" as="offset" />
          </mxGeometry>
        </mxCell>
        <mxCell id="-TtQoOYBS4aJGNzO3_nJ-15" style="edgeStyle=orthogonalEdgeStyle;rounded=0;orthogonalLoop=1;jettySize=auto;html=1;exitX=0.5;exitY=1;exitDx=0;exitDy=0;fontSize=13;entryX=1;entryY=0.5;entryDx=0;entryDy=0;" edge="1" parent="1c1d494c118603dd-1" source="-TtQoOYBS4aJGNzO3_nJ-14" target="-TtQoOYBS4aJGNzO3_nJ-16">
          <mxGeometry relative="1" as="geometry">
            <mxPoint x="690" y="570" as="targetPoint" />
            <Array as="points">
              <mxPoint x="910" y="570" />
            </Array>
          </mxGeometry>
        </mxCell>
        <mxCell id="-TtQoOYBS4aJGNzO3_nJ-23" style="edgeStyle=orthogonalEdgeStyle;rounded=0;orthogonalLoop=1;jettySize=auto;html=1;exitX=0;exitY=0.5;exitDx=0;exitDy=0;entryX=1;entryY=0.5;entryDx=0;entryDy=0;fontSize=13;" edge="1" parent="1c1d494c118603dd-1" source="-TtQoOYBS4aJGNzO3_nJ-21" target="-TtQoOYBS4aJGNzO3_nJ-19">
          <mxGeometry relative="1" as="geometry" />
        </mxCell>
        <mxCell id="-TtQoOYBS4aJGNzO3_nJ-26" style="edgeStyle=orthogonalEdgeStyle;rounded=0;orthogonalLoop=1;jettySize=auto;html=1;exitX=1;exitY=0.5;exitDx=0;exitDy=0;fontSize=13;entryX=0;entryY=0.5;entryDx=0;entryDy=0;" edge="1" parent="1c1d494c118603dd-1" source="-TtQoOYBS4aJGNzO3_nJ-25" target="-TtQoOYBS4aJGNzO3_nJ-27">
          <mxGeometry relative="1" as="geometry">
            <mxPoint x="560" y="680" as="targetPoint" />
          </mxGeometry>
        </mxCell>
        <mxCell id="-TtQoOYBS4aJGNzO3_nJ-20" style="edgeStyle=orthogonalEdgeStyle;rounded=0;orthogonalLoop=1;jettySize=auto;html=1;exitX=0;exitY=0.5;exitDx=0;exitDy=0;fontSize=13;" edge="1" parent="1" source="-TtQoOYBS4aJGNzO3_nJ-16">
          <mxGeometry relative="1" as="geometry">
            <mxPoint x="520" y="600" as="targetPoint" />
          </mxGeometry>
        </mxCell>
        <mxCell id="-TtQoOYBS4aJGNzO3_nJ-24" style="edgeStyle=orthogonalEdgeStyle;rounded=0;orthogonalLoop=1;jettySize=auto;html=1;exitX=0.5;exitY=1;exitDx=0;exitDy=0;fontSize=13;" edge="1" parent="1" source="-TtQoOYBS4aJGNzO3_nJ-19">
          <mxGeometry relative="1" as="geometry">
            <mxPoint x="400" y="710" as="targetPoint" />
            <Array as="points">
              <mxPoint x="215" y="710" />
            </Array>
          </mxGeometry>
        </mxCell>
      </root>
    </mxGraphModel>
  </diagram>
</mxfile>
